<?xml version="1.0" standalone="no"?>
<!DOCTYPE svg PUBLIC "-//W3C//DTD SVG 1.1//EN" "http://www.w3.org/Graphics/SVG/1.1/DTD/svg11.dtd" >
<svg xmlns="http://www.w3.org/2000/svg">
<metadata>Generated by IcoMoon</metadata>
<defs>
<font id="ustate-icon" horiz-adv-x="1024">
<font-face units-per-em="1024" ascent="960" descent="-64" />
<missing-glyph horiz-adv-x="1024" />
<glyph unicode="&#x20;" horiz-adv-x="512" d="" />
<glyph unicode="&#xe900;" glyph-name="menu42" d="M26.857 657.455h970.287c14.848 0 26.857 10.334 26.857 23.273 0 12.847-12.194 23.273-26.857 23.273h-970.287c-14.848 0-26.857-10.334-26.857-23.273 0-12.847 12.194-23.273 26.857-23.273zM26.857 424.727h970.287c14.848 0 26.857 10.334 26.857 23.273 0 12.847-12.194 23.273-26.857 23.273h-970.287c-14.848 0-26.857-10.334-26.857-23.273 0-12.847 12.194-23.273 26.857-23.273zM26.857 192h970.287c14.848 0 26.857 10.334 26.857 23.273 0 12.847-12.194 23.273-26.857 23.273h-970.287c-14.848 0-26.857-10.332-26.857-23.273 0-12.847 12.194-23.273 26.857-23.273z" />
<glyph unicode="&#xe901;" glyph-name="house128" d="M791.273 936.308v-139.636l139.636-109.708v249.344zM0 563.945h93.091v-627.945h279.273v465.455h279.273v-465.455h279.273v627.945h93.091l-512 396.055z" />
<glyph unicode="&#xe902;" glyph-name="house129" d="M0 564.107v-69.79l511.791 395.893 511.791-395.893v69.79l-511.791 395.893zM930.528 687.076v249.242h-139.579v-139.579l46.526-40.571v133.624h46.526v-162.842zM699.246-17.474v-46.526h231.609v564.319l-46.526 37.175v-554.967zM372.211-63.581h279.159v465.264h-279.159v-465.264zM418.738 355.157h186.106v-372.211h-186.106v372.211zM93.053 498.551v-562.551h231.702v46.526h-185.175v553.711z" />
<glyph unicode="&#xe903;" glyph-name="more10" d="M232.726 448c0-64.265-52.097-116.363-116.363-116.363s-116.363 52.097-116.363 116.363c0 64.265 52.097 116.363 116.363 116.363s116.363-52.097 116.363-116.363zM628.363 448c0-64.265-52.097-116.363-116.363-116.363s-116.363 52.097-116.363 116.363c0 64.265 52.097 116.363 116.363 116.363s116.363-52.097 116.363-116.363zM1024 448c0-64.265-52.097-116.363-116.363-116.363s-116.363 52.097-116.363 116.363c0 64.265 52.097 116.363 116.363 116.363s116.363-52.097 116.363-116.363z" />
<glyph unicode="&#xe904;" glyph-name="more13" d="M232.727 448c0 64.279-52.085 116.363-116.363 116.363s-116.365-52.083-116.365-116.363 52.085-116.363 116.363-116.363 116.365 52.083 116.365 116.363zM46.545 448c0 38.539 31.279 69.818 69.818 69.818s69.818-31.279 69.818-69.818c0-38.539-31.279-69.818-69.818-69.818s-69.818 31.279-69.818 69.818zM1024 448c0 64.279-52.085 116.363-116.363 116.363s-116.365-52.083-116.365-116.363 52.085-116.363 116.363-116.363 116.365 52.083 116.365 116.363zM837.818 448c0 38.539 31.279 69.818 69.818 69.818s69.818-31.279 69.818-69.818c0-38.539-31.279-69.818-69.818-69.818s-69.818 31.279-69.818 69.818zM628.363 448c0 64.279-52.085 116.363-116.363 116.363s-116.363-52.083-116.363-116.363 52.085-116.363 116.363-116.363 116.363 52.083 116.363 116.363zM442.182 448c0 38.539 31.279 69.818 69.818 69.818s69.818-31.279 69.818-69.818c0-38.539-31.279-69.818-69.818-69.818s-69.818 31.279-69.818 69.818z" />
<glyph unicode="&#xe905;" glyph-name="back48" d="M0 402.851l446.79-327.215v225.652c0 0 572.556-3.537 581.306 519.075-289.42-481.699-581.306-315.951-581.306-315.951l0.047 225.652-446.836-327.215z" />
<glyph unicode="&#xe906;" glyph-name="recycling11" horiz-adv-x="884" d="M417.699 775.54h46.545v-746.449h-46.545v746.449zM278.063 775.54h-46.545l46.545-746.449h46.545zM91.834 773.818h-46.499l93.091-837.818h605.091l93.091 837.818h-46.545l-93.091-791.273h-512zM603.881 775.54l-46.545-746.449h46.545l46.545 746.449zM884.364 866.909c0 46.545-23.319 46.545-23.319 46.545h-303.709c0 0 0 46.545-46.545 46.545h-139.636c-46.545 0-46.545-46.545-46.545-46.545h-301.289c0 0-23.319 0-23.319-46.545s23.319-46.545 23.319-46.545h837.725c0 0 23.319 0 23.319 46.545z" />
<glyph unicode="&#xe907;" glyph-name="arrow591" d="M1024 960l-1024-349.091 512-161.001 162.909-513.908z" />
<glyph unicode="&#xe908;" glyph-name="cross78" d="M1024 448c0 282.764-229.236 512-512 512s-512-229.236-512-512c0-282.764 229.236-512 512-512s512 229.236 512 512zM281.6 250.508l197.492 197.492-197.492 197.492 32.908 32.908 197.492-197.492 197.492 197.492 32.908-32.908-197.492-197.492 197.492-197.492-32.908-32.908-197.492 197.492-197.492-197.492-32.908 32.908z" />
<glyph unicode="&#xe909;" glyph-name="cross80" d="M709.492 217.6l32.908 32.908-197.492 197.492 197.492 197.492-32.908 32.908-197.492-197.492-197.492 197.492-32.908-32.908 197.492-197.492-197.492-197.492 32.908-32.908 197.492 197.492zM1024 448c0 282.764-229.236 512-512 512s-512-229.236-512-512c0-282.764 229.236-512 512-512s512 229.236 512 512zM46.545 448c0 257.071 208.384 465.455 465.455 465.455s465.455-208.384 465.455-465.455-208.384-465.455-465.455-465.455-465.455 208.384-465.455 465.455z" />
<glyph unicode="&#xe90a;" glyph-name="unlocked25" horiz-adv-x="745" d="M606.813 587.729v128.465c0 0 0 243.805-234.449 243.805-109.009 0-167.145-52.783-198.191-109.149-35.514-64.512 11.031-80.384 37.469-29.37 24.343 46.918 71.028 91.974 160.721 91.974 187.159 0 187.904-197.26 187.904-197.26v-128.465h46.545zM325.818 217.228v-86.202c0 0 0.14-48.78 46.639-48.78 46.452 0.047 46.452 48.78 46.452 48.78v86.202c27.834 16.849 46.545 48.361 46.545 84.48 0 53.853-41.658 97.513-93.091 97.513s-93.091-43.66-93.091-97.513c0-36.073 18.711-67.631 46.545-84.48zM0 539.183v-554.729c0-26.764 20.713-48.454 46.592-48.454h651.543c25.74 0 46.592 21.69 46.592 48.454v554.729c0 26.764-20.713 48.454-46.592 48.454h-651.543c-25.74 0-46.592-21.69-46.592-48.454zM698.182 541.091v-560.78h-651.636v560.78h651.636z" />
<glyph unicode="&#xe90b;" glyph-name="star156" d="M648.657 561.478l-137.356 398.522-141.265-395.311-370.036-3.212 304.221-252.556-109.335-372.922 316.416 226.397 316.416-226.397-109.382 370.502 305.664 254.976z" />
<glyph unicode="&#xe90c;" glyph-name="comment42" d="M196.422 517.818h584.611c5.632 0 10.24 4.655 10.24 10.333v25.879c0 5.725-4.515 10.333-10.24 10.333h-584.611c-5.632 0-10.24-4.655-10.24-10.333v-25.879c0-5.725 4.515-10.333 10.24-10.333zM196.422 657.455h584.611c5.632 0 10.24 4.655 10.24 10.333v25.879c0 5.725-4.515 10.333-10.24 10.333h-584.611c-5.632 0-10.24-4.655-10.24-10.333v-25.879c0-5.725 4.515-10.333 10.24-10.333zM195.91 378.182h399.453c5.353 0 9.728 4.655 9.728 10.333v25.879c0 5.725-4.422 10.333-9.728 10.333h-399.453c-5.353 0-9.728-4.655-9.728-10.333v-25.879c0-5.725 4.422-10.333 9.728-10.333zM139.636 192l131.119-152.436c16.756-19.503 44.404-19.316 61.3 0l133.399 152.436h511.86c25.786 0 46.685 20.899 46.685 46.871v604.393c0 25.926-20.48 46.918-46.639 46.918h-930.723c-25.74 0-46.639-20.899-46.639-46.918v-604.393c0-25.879 20.62-46.871 46.499-46.871h93.137zM46.545 843.636h930.909v-605.091h-525.452l-150.761-165.795-137.588 165.795h-117.108v605.091z" />
<glyph unicode="&#xe90d;" glyph-name="comment43" d="M139.636 192l131.119-152.436c16.756-19.503 44.404-19.316 61.3 0l133.399 152.436h511.86c25.786 0 46.685 20.899 46.685 46.871v604.393c0 25.926-20.433 46.918-46.639 46.918h-930.723c-25.74 0-46.639-20.899-46.639-46.918v-604.393c0-25.879 20.62-46.871 46.499-46.871h93.137zM186.182 693.667c0 5.679 4.608 10.333 10.24 10.333h584.611c5.725 0 10.24-4.608 10.24-10.333v-25.879c0-5.679-4.608-10.333-10.24-10.333h-584.611c-5.725 0-10.24 4.608-10.24 10.333v25.879zM186.182 554.031c0 5.679 4.608 10.333 10.24 10.333h584.611c5.725 0 10.24-4.608 10.24-10.333v-25.879c0-5.679-4.608-10.333-10.24-10.333h-584.611c-5.725 0-10.24 4.608-10.24 10.333v25.879zM186.182 414.394c0 5.679 4.375 10.333 9.728 10.333h399.453c5.306 0 9.728-4.608 9.728-10.333v-25.879c0-5.679-4.375-10.333-9.728-10.333h-399.453c-5.306 0-9.728 4.608-9.728 10.333v25.879z" />
<glyph unicode="&#xe90e;" glyph-name="pencil84" d="M837.818 944.759c0 0-34.304 34.304-68.609 0l-718.358-718.358 239.501-239.549 34.208 34.208-0.048 0.048 684.199 684.199c34.304 34.304 0 68.609 0 68.609l-170.892 170.844zM290.208 55.412l-170.844 170.844 547.417 547.466 170.844-170.844-547.417-547.466zM871.832 637.036l-170.844 170.844 102.574 102.574 170.844-170.844-102.574-102.574zM66.189 2.238l35.998 172.779-51.916 51.916-50.271-290.933 290.304 50.948-15.773 15.725-28.547 28.595z" />
<glyph unicode="&#xe90f;" glyph-name="upper7" d="M1024 960l-1024-349.091 512-161.001 162.909-513.908 349.091 1024zM116.922 609.327l837.26 280.855-279.273-814.545-128 407.273-429.987 126.417z" />
<glyph unicode="&#xe910;" glyph-name="right140" d="M1024 448c0 282.764-229.236 512-512 512s-512-229.236-512-512c0-282.764 229.236-512 512-512s512 229.236 512 512zM384.279 247.389l181.015 181.015-197.167 197.213 65.815 65.815 263.308-263.308-246.831-246.831-66.141 66.095z" />
<glyph unicode="&#xe911;" glyph-name="right147" d="M433.943 691.433l-65.815-65.815 197.167-197.213-181.015-181.015 66.141-66.095 246.831 246.831zM1024 448c0 282.764-229.236 512-512 512s-512-229.236-512-512c0-282.764 229.236-512 512-512s512 229.236 512 512zM46.545 448c0 257.071 208.384 465.455 465.455 465.455s465.455-208.384 465.455-465.455-208.384-465.455-465.455-465.455c-257.071 0-465.455 208.384-465.455 465.455z" />
<glyph unicode="&#xe912;" glyph-name="right149" d="M0 820.364c8.751-522.566 581.306-519.075 581.306-519.075v-225.652l446.79 327.215-446.79 327.215 0.047-225.652c0 0-291.933-165.748-581.353 315.951z" />
<glyph unicode="&#xe913;" glyph-name="right151" d="M0 820.364c8.751-522.566 581.306-519.075 581.306-519.075v-225.652l446.79 327.215-446.79 327.215 0.047-225.652c0 0-291.933-165.748-581.353 315.951zM628.783 470.668v171.892l311.668-239.709-311.668-233.891v175.151c0 0-439.668-32.303-569.856 331.404 233.891-363.66 569.856-204.847 569.856-204.847z" />
<glyph unicode="&#xe914;" glyph-name="locked35" horiz-adv-x="745" d="M606.813 587.729v128.465c0 0 0 243.805-234.449 243.805-233.705 0-233.705-242.781-233.705-242.781v-129.489h46.545v129.489c0 0 0 196.236 187.159 196.236s187.904-197.26 187.904-197.26v-128.465h46.545zM0 539.183v-554.729c0-26.764 20.713-48.454 46.592-48.454h651.543c25.74 0 46.592 21.69 46.592 48.454v554.729c0 26.764-20.713 48.454-46.592 48.454h-651.543c-25.74 0-46.592-21.69-46.592-48.454zM698.182 541.091v-560.78h-651.636v560.78h651.636zM325.818 217.228v-86.202c0 0 0.14-48.78 46.639-48.78s46.452 48.78 46.452 48.78v86.202c27.834 16.849 46.545 48.361 46.545 84.48 0 53.853-41.658 97.513-93.091 97.513s-93.091-43.66-93.091-97.513c0-36.073 18.711-67.631 46.545-84.48z" />
<glyph unicode="&#xe915;" glyph-name="add153" d="M1024 448c0 282.764-229.236 512-512 512s-512-229.236-512-512c0-282.764 229.236-512 512-512s512 229.236 512 512zM209.455 424.727v46.545h279.273v279.273h46.545v-279.273h279.273v-46.545h-279.273v-279.273h-46.545v279.273h-279.273z" />
<glyph unicode="&#xe916;" glyph-name="add154" d="M535.273 145.455v279.273h279.273v46.545h-279.273v279.273h-46.545v-279.273h-279.273v-46.545h279.273v-279.273zM1024 448c0 282.764-229.236 512-512 512s-512-229.236-512-512c0-282.764 229.236-512 512-512s512 229.236 512 512zM46.545 448c0 257.071 208.384 465.455 465.455 465.455s465.455-208.384 465.455-465.455-208.384-465.455-465.455-465.455c-257.071 0-465.455 208.384-465.455 465.455z" />
<glyph unicode="&#xe917;" glyph-name="questions1" d="M386.048 656.803c-4.003-4.329-6.609-7.121-8.564-9.216 3.631 3.91 8.564 9.216 8.564 9.216zM563.805 623.895c13.312-16.384 19.921-35.7 19.921-57.949 0-15.919-4.561-31.232-13.638-46.033-4.98-8.378-11.543-16.477-19.735-24.204l-27.276-26.95c-26.159-25.693-43.055-48.454-50.781-68.375-7.727-19.875-11.59-46.080-11.59-78.569h60.695c0 28.625 3.258 50.269 9.728 64.931s20.62 32.535 42.449 53.713c30.022 29.091 49.943 51.153 59.811 66.141s14.848 34.537 14.848 58.647c0 39.75-13.452 72.425-40.401 98.025s-62.79 38.353-107.567 38.353c-48.407 0-86.481-14.941-114.223-44.823s-41.612-69.353-41.612-118.458h60.695c1.117 29.556 5.818 52.177 13.964 67.863 14.522 28.16 40.774 42.263 78.755 42.263 30.673 0 52.689-8.192 65.955-24.576zM1024 448c0 282.764-229.236 512-512 512s-512-229.236-512-512c0-282.764 229.236-512 512-512s512 229.236 512 512zM46.545 448c0 257.071 208.384 465.455 465.455 465.455s465.455-208.384 465.455-465.455-208.384-465.455-465.455-465.455-465.455 208.384-465.455 465.455zM459.311 265.263h67.863v-70.889h-67.863v70.889z" />
<glyph unicode="&#xe918;" glyph-name="heart280" horiz-adv-x="1018" d="M418.413 6.306c20.18-16.709 38.879-31.612 55.727-44.479 10.136-7.776 17.449-13.191 21.43-16.061l13.561-9.766 13.515 9.766c3.98 2.87 11.293 8.285 21.43 16.061 16.848 12.913 35.593 27.817 55.727 44.479 57.578 47.719 115.202 100.345 168.985 156.442 120.155 125.292 204.161 249.428 235.866 367.314 8.979 33.371 13.608 65.909 13.608 97.568 0 314.319-286.964 448.729-509.362 211.891-221.564 236.884-508.899 94.143-508.899-211.891 0-31.659 4.628-64.243 13.561-97.568 31.659-117.887 115.665-241.976 235.866-367.314 53.829-56.097 111.407-108.722 168.985-156.442z" />
<glyph unicode="&#xe919;" glyph-name="heart281" horiz-adv-x="1018" d="M418.413 6.306c20.18-16.709 38.879-31.612 55.727-44.479 10.136-7.776 17.449-13.191 21.43-16.061l13.561-9.766 13.515 9.766c3.98 2.87 11.293 8.285 21.43 16.061 16.848 12.913 35.547 27.817 55.727 44.479 57.578 47.673 115.202 100.345 168.985 156.442 120.155 125.292 204.208 249.428 235.866 367.314 8.979 33.371 13.608 65.909 13.608 97.568 0 314.319-286.964 448.729-509.362 211.891-221.564 236.884-508.899 94.143-508.899-211.891 0-31.659 4.628-64.243 13.561-97.568 31.659-117.887 115.665-241.976 235.866-367.314 53.829-56.097 111.407-108.722 168.985-156.442zM46.285 627.63c0 273.681 251.186 391.382 445.165 161.903l17.681-20.874 17.681 20.921c193.979 229.433 445.165 111.777 445.165-161.95 0-27.447-4.073-56.004-11.988-85.58-29.206-108.769-109.278-227.072-224.573-347.273-52.487-54.755-108.815-106.223-165.143-152.832-19.671-16.292-61.142-50.219-61.142-50.219s-49.293 40.406-61.188 50.265c-56.328 46.655-112.61 98.123-165.143 152.832-115.249 120.201-195.321 238.458-224.573 347.273-7.868 29.576-11.941 58.087-11.941 85.534z" />
<glyph unicode="&#xe91a;" glyph-name="recycle64" horiz-adv-x="884" d="M231.564 775.54h46.545v-1.722h-46.545v1.722zM417.699 775.54h46.545v-1.722h-46.545v1.722zM138.426-64h605.091l93.091 837.818h-186.321l-46.406-744.727h-46.545l46.406 744.727h-139.497v-744.727h-46.545v744.727h-139.543l46.452-744.727h-46.545l-46.452 744.727h-186.275zM603.834 775.54h46.545v-1.722h-46.545v1.722zM884.364 866.909c0 46.545-23.319 46.545-23.319 46.545h-303.709c0 0 0 46.545-46.545 46.545h-139.636c-46.545 0-46.545-46.545-46.545-46.545h-301.289c0 0-23.319 0-23.319-46.545s23.319-46.545 23.319-46.545h837.725c0 0 23.319 0 23.319 46.545z" />
<glyph unicode="&#xe91b;" glyph-name="speaker85" d="M585.143 258.365v-54.174c0 0 146.286 60.611 146.286 243.81s-146.286 243.81-146.286 243.81v-54.174c0 0 97.524-41.35 97.524-189.635s-97.524-189.635-97.524-189.635zM152.381 291.962l384-234.057v780.19l-384-234.057h-101.571c-50.81 0-50.81-52.029-50.81-52.029v-208.067c0 0 0-52.029 50.81-52.029h101.571zM731.429 217.161v-61.733c0 0 146.286 80.457 146.286 292.571s-146.286 292.571-146.286 292.571v-59.685c0 0 97.524-63.439 97.524-232.887s-97.524-230.839-97.524-230.839zM877.714 171.032v-64.366c0 0 146.286 70.168 146.286 341.333s-146.286 341.333-146.286 341.333v-63.293c0 0 97.524-53.833 97.524-278.040s-97.524-276.968-97.524-276.968z" />
<glyph unicode="&#xe91c;" glyph-name="placeholder19" horiz-adv-x="698" d="M349.091 960c-233.612 0-349.091-162.816-349.091-363.66s349.091-660.34 349.091-660.34 349.091 459.497 349.091 660.34c0 200.844-115.479 363.66-349.091 363.66zM349.091 471.273c-102.819 0-186.182 83.363-186.182 186.182s83.363 186.182 186.182 186.182 186.182-83.363 186.182-186.182c0-102.819-83.363-186.182-186.182-186.182z" />
<glyph unicode="&#xe91d;" glyph-name="placeholder20" horiz-adv-x="698" d="M535.273 657.455c0-102.825-83.356-186.182-186.182-186.182s-186.182 83.356-186.182 186.182c0 102.825 83.356 186.182 186.182 186.182s186.182-83.356 186.182-186.182zM349.091 960c-233.612 0-349.091-162.816-349.091-363.66s349.091-660.34 349.091-660.34 349.091 459.497 349.091 660.34c0 200.844-115.479 363.66-349.091 363.66zM46.545 593.92c0 177.99 110.359 322.327 302.545 322.327s302.545-144.291 302.545-322.327-302.545-585.309-302.545-585.309-302.545 407.273-302.545 585.309z" />
<glyph unicode="&#xe91e;" glyph-name="photo182" d="M268.94 773.818c5.725 0 10.333 4.143 10.333 9.309v27.927c0 5.167-4.608 9.309-10.333 9.309h-72.425c-5.725 0-10.333-4.143-10.333-9.309v-27.927c0-5.12 4.608-9.309 10.333-9.309h72.425zM698.182 424.727c0-89.972-72.937-162.909-162.909-162.909s-162.909 72.937-162.909 162.909c0 89.972 72.937 162.909 162.909 162.909s162.909-72.937 162.909-162.909zM0 634.182v-465.455c0-93.091 93.091-93.091 93.091-93.091h837.818c0 0 93.091 0 93.091 93.091v465.455c0 93.091-93.091 93.091-93.091 93.091h-186.182l-46.545 93.091h-325.818l-46.545-93.091h-232.727c0 0-93.091 0-93.091-93.091zM791.273 634.182c25.693 0 46.545-20.852 46.545-46.545s-20.852-46.545-46.545-46.545c-25.693 0-46.545 20.852-46.545 46.545s20.852 46.545 46.545 46.545zM535.273 634.182c115.665 0 209.455-93.789 209.455-209.455s-93.789-209.455-209.455-209.455c-115.665 0-209.455 93.789-209.455 209.455s93.789 209.455 209.455 209.455z" />
<glyph unicode="&#xe91f;" glyph-name="photos11" d="M884.364 657.455c0-38.56-31.259-69.818-69.818-69.818s-69.818 31.259-69.818 69.818c0 38.56 31.259 69.818 69.818 69.818s69.818-31.259 69.818-69.818zM1017.484 29.091c3.584 0 6.516 3.025 6.516 6.749v824.32c0 3.724-2.932 6.749-6.516 6.749h-1010.921c-3.631 0-6.563-3.025-6.563-6.749v-824.32c0-3.724 2.932-6.749 6.563-6.749h1010.921zM46.545 820.364h930.909v-744.727h-930.909v744.727zM693.946 505.484c-4.003 6.284-12.055 7.773-18.060 3.537l-128.605-90.438c-2.979-2.095-7.028-1.257-8.89 1.955l-151.552 261.772c-3.631 6.33-9.449 6.377-12.847-0.14l-14.988-28.858-266.007-512.977c-3.398-6.563-0.279-11.823 6.935-11.823h821.807c6.982 0 9.821 5.027 5.865 11.217l-233.658 365.754z" />
<glyph unicode="&#xe920;" glyph-name="favorites3" d="M648.657 561.478l-137.356 398.522-141.265-395.311-370.036-3.212 304.221-252.556-109.335-372.922 316.416 226.397 316.416-226.397-109.382 370.502 305.664 254.976h-375.343zM757.9 29.603l-246.598 203.124-246.598-203.124 93.137 290.257-241.478 195.631 288.023 3.584 106.915 301.847 103.75-305.431h292.585l-246.319-195.584 96.582-290.304z" />
<glyph unicode="&#xe921;" glyph-name="left157" d="M0 402.851l446.79-327.215v225.652c0 0 572.556-3.537 581.306 519.075-289.42-481.699-581.306-315.951-581.306-315.951l0.047 225.652-446.836-327.215zM969.216 675.561c-130.188-363.706-569.856-331.404-569.856-331.404v-175.151l-311.668 233.844 311.668 239.709v-171.846c0-0.047 335.965-158.86 569.856 204.847z" />
<glyph unicode="&#xe922;" horiz-adv-x="750" d="M176.577-79.994c-203.644 312.63 42.246 340.545-20.475 768.577 153.832-201.931 196.752-449.627 261.357-522.857 44.567-57.536 66.522-126.993 60.531-198.337-0.599-56.458 70.775-124.896 51.246-177.61-103.751 83.114-282.227 28.933-352.645 130.228z" />
<glyph unicode="&#xe923;" horiz-adv-x="750" d="M484.55-171.285c1.168 59.872-71.284 85.84-100.426 132.594-48.251 35.732-63.526 91.321-64.605 146.072-3.924 87.547 74.129 609.626 187.824 749.827-43.579-215.289 64.605-502.101 131.426-596.986 45.226-73.71 62.238-158.591 45.945-242.125-7.997-66.611-63.197-106.656-93.058-166.409-29.861-36.001-70.505-39.416-107.105-22.973z" />
<glyph unicode="&#xe924;" horiz-adv-x="750" d="M525.822-200.577c17.342 51.995-16.952 134.451-27.765 182.702-29.292 43.429-26.477 95.904-12.37 144.005 20.786 77.484 24.23 443.217 359.504 614.957-260.036-255.124-87.368-462.476-59.213-562.333 16.443-75.866 8.027-154.937-29.053-223.196-51.187-94.196-187.884-146.132-231.103-156.135z" />
<glyph unicode="&#xe925;" horiz-adv-x="750" d="M470.593-170.087c0.869 48.88-53.912 70.086-75.956 108.243-36.51 29.172-48.072 74.548-48.88 119.236-2.965 71.493 69.846 449.417 128.281 612.172-39.865-368.938 62.658-409.911 113.185-487.365 34.234-60.202 47.083-129.479 34.743-197.678-6.050-54.391-32.138-103.96-54.721-152.751-22.583-29.382-68.978-15.275-96.652-1.857z" />
<glyph unicode="&#xe926;" horiz-adv-x="750" d="M260.464-100.061c-209.182 214.78 18.74 229.725-39.275 524.684 68.897-139.033 126.034-243.473 151.104-342.192 37.139-34.833 165.42-247.636 157.723-286.213-80.838 46.035-209.329 41.902-269.551 103.721z" />
<glyph unicode="&#xe927;" horiz-adv-x="750" d="M302.237-87.122c-125.13 118.786-31.682 188.543-32.803 336.891 34.6-129.838 144.011-161.826 142.603-239.849 18.061-23.332 112.706-189.711 104.799-211.096-42.081 33.695-167.187 69.037-214.6 114.054z" />
<glyph unicode="&#xe928;" horiz-adv-x="750" d="M503.359-71.098c-21.984 32.587-19.858 71.943-9.255 108.034 15.575 58.135 84.073 381.338 181.923 451.633-70.655-132.863 22.254-337.22 43.369-412.128 12.34-56.937 15.784-124.267-21.804-167.487-56.757-65.234-128.431-103.242-168.595-112.347-25.518-17.911-17.521 96.083-25.638 132.294z" />
<glyph unicode="&#xe929;" horiz-adv-x="750" d="M468.017-173.681c1.767 29.921-31.239 44.268-43.789 68.199-21.625 18.749-27.555 46.844-26.956 74.219-0.030 43.848-1.528 317.123 54.002 385.052-24.56-106.806 67.959-265.996 96.982-314.697 19.438-37.709 25.578-80.449 16.323-121.871-5.062-33.156-22.284-62.867-37.319-92.16-14.586-17.432-42.62-7.638-59.243 1.258z" />
<glyph unicode="&#xe92a;" horiz-adv-x="750" d="M494.434-177.485c14.227 20.816-3.414 45.466-2.097 68.139-7.488 22.913 0.359 45.735 12.669 65.234 18.929 31.658 52.235 266.865 121.692 291.874-63.946-66.432 47.083-244.072 46.963-291.784-2.276-35.612-45.616-83.743-70.206-109.651-18.001-21.745-53.643-42.62-77.184-57.267-18.061 10.962-23.691 19.828-31.838 33.455z" />
<glyph unicode="&#xe92b;" horiz-adv-x="750" d="M470.473-153.674c-44.208 69.606-27.795 147.27-9.015 231.972 8.566-57.476 44.238-127.232 64.395-150.115 13.927-17.941 20.786-39.625 18.899-61.909-0.18-17.641-9.135-38.996-15.215-55.44-32.407 25.938-37.080 3.864-59.064 35.492z" />
<glyph unicode="&#xe92c;" horiz-adv-x="750" d="M520.162-119.17c34.234 75.028 0.329 134.061 78.801 192.915-23.422-54.541 30.161-140.681 24.32-170.572-9.794-50.228-77.514-87.607-94.646-91.471 4.103 41.303-23.002 33.455-8.476 69.127z" />
<glyph unicode="&#xe92d;" horiz-adv-x="750" d="M275.7 126.34c184.050-232.75 179.976-115.252 252.967-314.577-347.883 154.877-191.747 140.92-252.967 314.577z" />
<glyph unicode="&#xe92e;" glyph-name="file63" horiz-adv-x="745" d="M139.636 401.455h465.455v-46.545h-465.455v46.545zM139.636 261.818h465.455v-46.545h-465.455v46.545zM139.636 820.364h279.273v-46.545h-279.273v46.545zM139.636 122.182h465.455v-46.545h-465.455v46.545zM139.636 541.091h465.455v-46.545h-465.455v46.545zM722.153-64c0 0 22.575 0 22.575 22.761v796.439l-203.124 204.8h-519.028c0 0-22.575 0-22.575-22.761v-978.432c0-22.807 22.575-22.807 22.575-22.807h699.578zM46.545 913.455h465.455v-139.636c0-46.545 46.545-46.545 46.545-46.545h139.636v-744.727h-651.636v930.909zM139.636 680.727h465.455v-46.545h-465.455v46.545z" />
<glyph unicode="&#xe92f;" glyph-name="arrow_lift" d="M246.784 491.691l443.051 442.709c24.917 24.917 62.464 24.917 87.381 0s24.917-62.464 0-87.381l-399.36-399.36 399.36-399.36c24.917-24.917 24.917-62.464 0-87.381s-62.464-24.917-87.381 0l-443.051 443.392c-24.917 24.917-24.917 62.464 0 87.381z" />
<glyph unicode="&#xe930;" glyph-name="keyboard_arrow_right" d="M366 262l196 196-196 196 60 60 256-256-256-256z" />
<glyph unicode="&#xe931;" glyph-name="close" d="M810 686l-238-238 238-238-60-60-238 238-238-238-60 60 238 238-238 238 60 60 238-238 238 238z" />
<glyph unicode="&#xe951;" glyph-name="bell" d="M1025.5 160c0 288-256 224-256 448 0 18.56-1.788 34.42-5.048 47.928-16.83 113.018-92.156 203.72-189.772 231.36 0.866 3.948 1.32 8.032 1.32 12.21 0 33.278-28.8 60.502-64 60.502s-64-27.224-64-60.5c0-4.18 0.456-8.264 1.32-12.21-109.47-30.998-190.914-141.298-193.254-273.442-0.040-1.92-0.066-3.864-0.066-5.846 0-224.002-256-160.002-256-448.002 0-76.226 170.59-139.996 398.97-156.080 21.524-40.404 64.056-67.92 113.030-67.92s91.508 27.516 113.030 67.92c228.38 16.084 398.97 79.854 398.97 156.080 0 0.228-0.026 0.456-0.028 0.682l1.528-0.682zM826.246 105.904c-54.23-14.47-118.158-24.876-186.768-30.648-5.704 65.418-60.582 116.744-127.478 116.744s-121.774-51.326-127.478-116.744c-68.608 5.772-132.538 16.178-186.768 30.648-74.63 19.914-110.31 42.19-123.368 54.096 13.058 11.906 48.738 34.182 123.368 54.096 86.772 23.152 198.372 35.904 314.246 35.904s227.474-12.752 314.246-35.904c74.63-19.914 110.31-42.19 123.368-54.096-13.058-11.906-48.738-34.182-123.368-54.096z" />
<glyph unicode="&#xe971;" glyph-name="user" d="M576 253.388v52.78c70.498 39.728 128 138.772 128 237.832 0 159.058 0 288-192 288s-192-128.942-192-288c0-99.060 57.502-198.104 128-237.832v-52.78c-217.102-17.748-384-124.42-384-253.388h896c0 128.968-166.898 235.64-384 253.388z" />
<glyph unicode="&#xe9e1;" glyph-name="smile" d="M512-64c282.77 0 512 229.23 512 512s-229.23 512-512 512-512-229.23-512-512 229.23-512 512-512zM512 864c229.75 0 416-186.25 416-416s-186.25-416-416-416-416 186.25-416 416 186.25 416 416 416zM256 640c0 35.346 28.654 64 64 64s64-28.654 64-64c0-35.346-28.654-64-64-64s-64 28.654-64 64zM640 640c0 35.346 28.654 64 64 64s64-28.654 64-64c0-35.346-28.654-64-64-64s-64 28.654-64 64zM704.098 332.74l82.328-49.396c-55.962-93.070-157.916-155.344-274.426-155.344s-218.464 62.274-274.426 155.344l82.328 49.396c39.174-65.148 110.542-108.74 192.098-108.74s152.924 43.592 192.098 108.74z" />
<glyph unicode="&#xe9e2;" glyph-name="smile2" d="M512 960c-282.77 0-512-229.23-512-512s229.23-512 512-512 512 229.23 512 512-229.23 512-512 512zM704 704c35.346 0 64-28.654 64-64s-28.654-64-64-64-64 28.654-64 64 28.654 64 64 64zM320 704c35.346 0 64-28.654 64-64s-28.654-64-64-64-64 28.654-64 64 28.654 64 64 64zM512 128c-116.51 0-218.464 62.274-274.426 155.344l82.328 49.396c39.174-65.148 110.542-108.74 192.098-108.74s152.924 43.592 192.098 108.74l82.328-49.396c-55.962-93.070-157.916-155.344-274.426-155.344z" />
<glyph unicode="&#xea0f;" glyph-name="cross" d="M1014.662 137.34c-0.004 0.004-0.008 0.008-0.012 0.010l-310.644 310.65 310.644 310.65c0.004 0.004 0.008 0.006 0.012 0.010 3.344 3.346 5.762 7.254 7.312 11.416 4.246 11.376 1.824 24.682-7.324 33.83l-146.746 146.746c-9.148 9.146-22.45 11.566-33.828 7.32-4.16-1.55-8.070-3.968-11.418-7.31 0-0.004-0.004-0.006-0.008-0.010l-310.648-310.652-310.648 310.65c-0.004 0.004-0.006 0.006-0.010 0.010-3.346 3.342-7.254 5.76-11.414 7.31-11.38 4.248-24.682 1.826-33.83-7.32l-146.748-146.748c-9.148-9.148-11.568-22.452-7.322-33.828 1.552-4.16 3.97-8.072 7.312-11.416 0.004-0.002 0.006-0.006 0.010-0.010l310.65-310.648-310.65-310.652c-0.002-0.004-0.006-0.006-0.008-0.010-3.342-3.346-5.76-7.254-7.314-11.414-4.248-11.376-1.826-24.682 7.322-33.83l146.748-146.746c9.15-9.148 22.452-11.568 33.83-7.322 4.16 1.552 8.070 3.97 11.416 7.312 0.002 0.004 0.006 0.006 0.010 0.010l310.648 310.65 310.648-310.65c0.004-0.002 0.008-0.006 0.012-0.008 3.348-3.344 7.254-5.762 11.414-7.314 11.378-4.246 24.684-1.826 33.828 7.322l146.746 146.748c9.148 9.148 11.57 22.454 7.324 33.83-1.552 4.16-3.97 8.068-7.314 11.414z" />
<glyph unicode="&#xea10;" glyph-name="checkmark" d="M864 832l-480-480-224 224-160-160 384-384 640 640z" />
<glyph unicode="&#xea40;" glyph-name="arrow-left2" d="M402.746 82.746l-320 320c-24.994 24.992-24.994 65.516 0 90.51l320 320c24.994 24.992 65.516 24.992 90.51 0 24.994-24.994 24.994-65.516 0-90.51l-210.746-210.746h613.49c35.346 0 64-28.654 64-64s-28.654-64-64-64h-613.49l210.746-210.746c12.496-12.496 18.744-28.876 18.744-45.254s-6.248-32.758-18.744-45.254c-24.994-24.994-65.516-24.994-90.51 0z" />
</font>
</defs>
</svg>
